# AST/ASF file generated using VICON BodyLanguage
# -----------------------------------------------
:version 1.10
:name VICON
:units
  mass 1.0
  length 0.45
  angle deg
:documentation
   .ast/.asf automatically generated from VICON data using
   VICON BodyBuilder and BodyLanguage model FoxedUp or BRILLIANT.MOD
:root
   order TX TY TZ RX RY RZ
   axis XYZ
   position 0 0 0  
   orientation 0 0 0 
:bonedata
  begin
     id 1 
     name lhipjoint
     direction 0.623529 -0.717805 0.309788 
     length 2.23224 
     axis 0 0 0  XYZ
  end
  begin
     id 2 
     name lfemur
     direction 0.34202 -0.939693 0  
     length 7.11402  
     axis 0 0 20  XYZ
    dof rx ry rz
    limits (-160.0 20.0)
           (-70.0 70.0)
           (-60.0 70.0)
  end
  begin
     id 3 
     name ltibia
     direction 0.34202 -0.939693 0   
     length 6.78496   
     axis 0 0 20   XYZ
    dof rx
    limits (-10.0 170.0)
  end
  begin
     id 4 
     name lfoot
     direction 0.125078 -0.343648 0.930732   
     length 1.84054   
     axis -90 7.62852e-016 20   XYZ
    dof rx rz
    limits (-45.0 90.0)
           (-70.0 20.0)
  end
  begin
     id 5 
     name ltoes
     direction 1.53565e-011 -4.21893e-011 1   
     length 0.916474   
     axis -90 7.62852e-016 20   XYZ
    dof rx
    limits (-90.0 20.0)
  end
  begin
     id 6 
     name rhipjoint
     direction -0.564688 -0.757748 0.327026   
     length 2.11457  
     axis 0 0 0  XYZ 
  end
  begin
     id 7 
     name rfemur
     direction -0.34202 -0.939693 0   
     length 7.14609   
     axis 0 0 -20   XYZ
    dof rx ry rz
    limits (-160.0 20.0)
           (-70.0 70.0)
           (-70.0 60.0)
  end
  begin
     id 8 
     name rtibia
     direction -0.34202 -0.939693 0   
     length 6.78101   
     axis 0 0 -20   XYZ
    dof rx
    limits (-10.0 170.0)
 end
 begin
     id 9 
     name rfoot
     direction -0.0992671 -0.272734 0.956955   
     length 1.96168  
     axis -90 -7.62852e-016 -20   XYZ
    dof rx rz
    limits (-45.0 90.0)
           (-20.0 70.0)
  end
  begin
     id 10 
     name rtoes
     direction -1.5356e-011 -4.21891e-011 1   
     length 0.982933   
     axis -90 -7.62852e-016 -20   XYZ
    dof rx
    limits (-90.0 20.0)
  end
  begin
     id 11 
     name lowerback
     direction -0.00596953 0.998668 0.0512524   
     length 1.87557   
     axis 0 0 0   XYZ
    dof rx ry rz
    limits (-20.0 45.0)
           (-30.0 30.0)
           (-30.0 30.0)
  end
  begin
     id 12 
     name upperback
     direction 0.00584879 0.999652 0.0257308   
     length 1.87883   
     axis 0 0 0   XYZ
    dof rx ry rz
    limits (-20.0 45.0)
           (-30.0 30.0)
           (-30.0 30.0)
  end
  begin
     id 13 
     name thorax
     direction 0.010104 0.999947 0.00178881   
     length 1.87779   
     axis 0 0 0   XYZ
    dof rx ry rz
    limits (-20.0 45.0)
           (-30.0 30.0)
           (-30.0 30.0)
  end
  begin
     id 14 
     name lowerneck
     direction 0.0120771 0.995934 -0.0892773   
     length 1.40897   
     axis 0 0 0   XYZ
    dof rx ry rz
    limits (-20.0 45.0)
           (-30.0 30.0)
           (-30.0 30.0)
  end
  begin
     id 15 
     name upperneck
     direction -0.030568 0.999465 -0.0116366   
     length 1.38661   
     axis 0 0 0   XYZ
    dof rx ry rz
    limits (-20.0 45.0)
           (-30.0 30.0)
           (-30.0 30.0)
  end
  begin
     id 16
     name head
     direction -0.0170715 0.999854 -0.00104426  
     length 1.47052  
     axis 0 0 0   XYZ
    dof rx ry rz
    limits (-20.0 45.0)
           (-30.0 30.0)
           (-30.0 30.0)
  end
  begin
     id 17 
     name lclavicle
     direction 0.977763 0.206143 0.038532  
     length 3.02424  
     axis 0 0 0   XYZ
    dof ry rz
    limits (-20.0 10.0)
           (0.0 20.0)
  end
  begin
     id 18 
     name lhumerus
     direction 1 -4.48965e-011 -2.62654e-027   
     length 4.68382   
     axis 180 -30 -90   XYZ
    dof rx ry rz
    limits (-60.0 90.0)
           (-90.0 90.0)
           (-90.0 90.0)
  end
  begin
     id 19
     name lradius
     direction 1 -4.48973e-011 -1.54954e-027   
     length 2.98124   
     axis 180 -30 -90   XYZ
    dof rx
    limits (-10.0 170.0)
  end
  begin
     id 20
     name lwrist
     direction 1 -4.48959e-011 7.20928e-028   
     length 1.49062   
     axis -5.52449e-016 90 90   XYZ
    dof ry
    limits (-180.0 0.0)
 end
  begin
     id 21 
     name lhand
     direction 1 -4.48971e-011 1.44186e-027   
     length 0.707595   
     axis -9.20027e-016 90 90   XYZ
    dof rx rz
    limits (-90.0 90.0)
           (-45.0 45.0)
  end
  begin
     id 22 
     name lfingers
     direction 1 -4.48985e-011 2.88371e-027   
     length 0.570481   
     axis -1.84005e-015 90 90   XYZ
    dof rx
    limits (0.0 90.0)
  end
  begin
     id 23
     name lthumb
     direction 0.707107 -6.34929e-011 0.707107   
     length 0.819101   
     axis -90 45 2.85299e-015   XYZ
    dof rx rz
    limits (-45.0 45.0)
           (-45.0 45.0)
  end
  begin
     id 24 
     name rclavicle
     direction -0.958661 0.284411 -0.00895327   
     length 3.11921  
     axis 0 0 0   XYZ 
    dof ry rz
    limits (-10.0 20.0)
           (-20.0 0.0)
  end
  begin
     id 25 
     name rhumerus
     direction -1 -4.48963e-011 -4.22193e-027  
     length 4.75876   
     axis 180 30 90   XYZ
    dof rx ry rz
    limits (-90.0 60.0)
           (-90.0 90.0)
           (-90.0 90.0)
  end
  begin
     id 26 
     name rradius
     direction -1 -4.48968e-011 -1.07616e-027   
     length 2.93293   
     axis 180 30 90   XYZ
    dof rx
    limits (-10.0 170.0)
  end
  begin
     id 27 
     name rwrist
     direction -1 -4.48965e-011 7.20928e-028   
     length 1.46647   
     axis -5.52449e-016 -90 -90   XYZ
    dof ry
    limits (-180.0 0.0)
  end
  begin
     id 28
     name rhand
     direction -1 -4.48971e-011 1.44186e-027   
     length 0.831748   
     axis -9.20027e-016 -90 -90   XYZ
    dof rx rz
    limits (-90.0 90.0)
           (-45.0 45.0)
  end
  begin
     id 29
     name rfingers
     direction -1 -4.48961e-011 2.88371e-027   
     length 0.670577   
     axis -1.84005e-015 -90 -90   XYZ
    dof rx
    limits (0.0 90.0)
  end
  begin
     id 30
     name rthumb
     direction -0.707107 -6.34929e-011 0.707107   
     length 0.962818   
     axis -90 -45 -2.85299e-015   XYZ
    dof rx rz
    limits (-45.0 45.0)
           (-45.0 45.0)
  end
:hierarchy
  begin
    root lhipjoint rhipjoint lowerback
    lhipjoint lfemur
    lfemur ltibia
    ltibia lfoot
    lfoot ltoes
    rhipjoint rfemur
    rfemur rtibia
    rtibia rfoot
    rfoot rtoes
    lowerback upperback
    upperback thorax
    thorax lowerneck lclavicle rclavicle
    lowerneck upperneck
    upperneck head
    lclavicle lhumerus
    lhumerus lradius
    lradius lwrist
    lwrist lhand lthumb
    lhand lfingers
    rclavicle rhumerus
    rhumerus rradius
    rradius rwrist
    rwrist rhand rthumb
    rhand rfingers
  end

#!OML:ASF E:\id_vita\Project 1\Capture day 1\Session 1\Female.ASF
:FULLY-SPECIFIED
:DEGREES
239
root 43.6983 15.3672 -1.93742 -166.175 -74.0407 -120.923
lowerback 11.5971 3.1252 -6.90746
upperback -0.393609 2.87472 -3.40888
thorax -7.11659 1.54935 -0.236912
lowerneck -11.1067 3.98552 -3.62012
upperneck -32.8297 4.97908 3.52887
head -8.78154 1.5194 1.83143
rclavicle 1.11319e-014 8.40859e-014
rhumerus 32.614 27.3067 -78.2352
rradius 61.2649
rwrist 22.1238
rhand -46.3735 70.5753
rfingers 7.12502
rthumb -19.1049 41.4936
lclavicle 1.11319e-014 8.40859e-014
lhumerus 34.4344 -9.03759 42.4423
lradius 62.6
lwrist -16.1001
lhand -58.6654 35.3578
lfingers 7.12502
lthumb -30.8804 62.782
rfemur -65.2269 9.18186 39.0047
rtibia 19.5007
rfoot -21.5992 -7.39337
rtoes -4.64834
lfemur -107.821 16.4422 -7.85315
ltibia 54.6668
lfoot -8.91988 2.07748
ltoes -1.69796
240
root 43.6726 15.3554 -1.93848 -167.297 -74.1486 -119.432
lowerback 11.2434 3.00003 -6.49101
upperback -0.484327 2.80308 -3.39433
thorax -6.98753 1.503 -0.423627
lowerneck -11.12 3.9716 -3.59847
upperneck -32.7379 5.0387 3.84554
head -8.75367 1.52019 1.93588
rclavicle -4.45278e-014 -2.04748e-014
rhumerus 32.7517 27.3789 -78.3475
rradius 61.1471
rwrist 22.018
rhand -46.5494 70.8441
rfingers 7.12502
rthumb -19.274 41.7792
lclavicle -4.45278e-014 -2.04748e-014
lhumerus 34.4645 -9.03391 42.0274
lradius 62.6234
lwrist -15.8578
lhand -58.3423 34.9093
lfingers 7.12502
lthumb -30.5723 62.3914
rfemur -65.307 9.09694 39.6187
rtibia 19.3088
rfoot -21.8635 -7.24376
rtoes -5.12987
lfemur -108.341 16.5876 -7.74253
ltibia 54.9491
lfoot -8.89995 1.83712
ltoes -0.810265
241
root 43.6541 15.3381 -1.94171 -167.735 -74.301 -118.491
lowerback 10.6343 2.89535 -6.25583
upperback -0.584613 2.75331 -3.40084
thorax -6.73397 1.47199 -0.523902
lowerneck -11.179 3.99973 -3.54984
upperneck -32.405 5.11947 3.94102
head -8.62405 1.56563 1.95219
rclavicle 2.70347e-014 2.90226e-014
rhumerus 32.7749 27.3378 -78.4082
rradius 61.0749
rwrist 21.8819
rhand -45.6193 69.2527
rfingers 7.12502
rthumb -18.3795 40.101
lclavicle 2.70347e-014 2.90226e-014
lhumerus 34.5789 -9.01938 41.8097
lradius 62.7257
lwrist -15.0749
lhand -59.4254 36.5965
lfingers 7.12502
lthumb -31.6046 63.8809
rfemur -65.6408 9.04534 40.0077
rtibia 19.1701
rfoot -22.0232 -7.06785
rtoes -5.32187
lfemur -109.099 16.6841 -7.93706
ltibia 55.2063
lfoot -8.81813 1.63495
ltoes -0.0470009
242
root 43.628 15.3284 -1.95266 -167.883 -74.3107 -118.25
lowerback 10.4418 2.91242 -6.36991
upperback -0.61697 2.77962 -3.39215
thorax -6.6668 1.48924 -0.44735
lowerneck -11.0413 3.90463 -3.3157
upperneck -32.5945 4.97143 3.99872
head -8.70391 1.44642 1.93979
rclavicle 3.02153e-014 2.24627e-014
rhumerus 32.575 27.1445 -78.602
rradius 61.0366
rwrist 22.1662
rhand -46.2163 70.7729
rfingers 7.12502
rthumb -18.9538 41.6764
lclavicle 3.02153e-014 2.24627e-014
lhumerus 34.6024 -9.2297 41.7156
lradius 62.6127
lwrist -15.4945
lhand -59.4206 36.6852
lfingers 7.12502
lthumb -31.6001 63.9706
rfemur -65.5686 9.00168 40.1834
rtibia 19.103
rfoot -22.1741 -7.00545
rtoes -5.35405
lfemur -109.351 16.7983 -8.30607
ltibia 55.4427
lfoot -8.43053 1.10985
ltoes 2.5934
243
root 43.5947 15.3244 -1.95446 -167.807 -74.3987 -118.476
lowerback 10.6274 2.94197 -6.48378
upperback -0.691742 2.78494 -3.36324
thorax -6.86003 1.50052 -0.368048
lowerneck -11.0011 3.9662 -3.37829
upperneck -32.2942 5.06094 3.89332
head -8.60185 1.53061 1.90232
rclavicle 9.85972e-014 1.10127e-013
rhumerus 32.1384 26.9774 -78.7527
rradius 61.0285
rwrist 22.5409
rhand -46.5722 71.1994
rfingers 7.12502
rthumb -19.2959 42.1367
lclavicle 9.85972e-014 1.10127e-013
lhumerus 34.5113 -9.57471 41.8539
lradius 62.4568
lwrist -16.0081
lhand -58.9915 36.8799
lfingers 7.12502
lthumb -31.1912 64.2448
rfemur -65.3101 8.81158 40.1387
rtibia 19.0275
rfoot -22.2289 -6.98706
rtoes -5.44862
lfemur -109.357 16.6995 -8.72371
ltibia 55.6546
lfoot -8.98754 0.959072
ltoes 0.0536465
244
root 43.5692 15.3204 -1.95717 -167.779 -74.6389 -118.289
lowerback 10.3862 2.9417 -6.47403
upperback -0.884476 2.81452 -3.24222
thorax -6.93576 1.52519 -0.246728
lowerneck -10.3641 3.85316 -3.81321
upperneck -32.3667 4.9745 4.0272
head -8.74151 1.54042 2.01604
rclavicle 2.54444e-014 2.94201e-014
rhumerus 31.7483 26.8883 -78.5398
rradius 60.8611
rwrist 22.8446
rhand -47.6304 69.8129
rfingers 7.12502
rthumb -20.3133 40.8552
lclavicle 2.54444e-014 2.94201e-014
lhumerus 34.566 -9.97491 42.0468
lradius 62.5492
lwrist -15.1193
lhand -58.7015 35.7634
lfingers 7.12502
lthumb -30.9148 63.1811
rfemur -65.438 8.66539 40.1535
rtibia 18.9024
rfoot -22.2229 -6.94574
rtoes -5.52521
lfemur -109.801 16.5706 -9.02829
ltibia 55.854
lfoot -8.64214 0.933342
ltoes 1.14628
